# xmcd
#
# Track frame offsets:
#	150
#	19475
#	35009
#	50627
#	71232
#	88171
#	106128
#	129444
#	149191
#
# Disc length: 2250 seconds
#
# Revision: 0
# Processed by: cddbd v1.5.2PL0 Copyright (c) Steve Scherf et al.
# Submitted via: audiograbber 1.83.01
#
DISCID=8d08c809
DTITLE=Jørn Hoel - Sanga For Hjertet CD2
DYEAR=2011
DGENRE=Easy Listening
TTITLE0=Lost In The Tango
TTITLE1=Barfot Mambo
TTITLE2=Cumbia For Stive Hofte
TTITLE3=Spanish Fly
TTITLE4=Hot Tamale
TTITLE5=En Blå Løk
TTITLE6=Buy Me
TTITLE7=På Innsiden Av Låret
TTITLE8=Det E Sant
EXTD=
EXTT0=
EXTT1=
EXTT2=
EXTT3=
EXTT4=
EXTT5=
EXTT6=
EXTT7=
EXTT8=
PLAYORDER=
